<?xml version="1.0" encoding="UTF-8"?>
<svg width="119px" height="28px" viewBox="0 0 119 28" version="1.1" xmlns="http://www.w3.org/2000/svg" xmlns:xlink="http://www.w3.org/1999/xlink">
    <!-- Generator: Sketch 52.2 (67145) - http://www.bohemiancoding.com/sketch -->
    <title>Page 1 Copy 2</title>
    <desc>Created with Sketch.</desc>
    <g id="Symbols" stroke="none" stroke-width="1" fill="none" fill-rule="evenodd">
        <g id="navigation/topbar/text" transform="translate(-20.000000, -14.000000)" fill="#000000">
            <g id="Page-1-Copy-2" transform="translate(20.000000, 14.000000)">
                <path d="M47.2892907,9.9981399 L47.2892907,11.3026881 C47.4102944,11.0589317 48.2116224,9.69763597 49.8220019,9.69763597 L50.3266132,9.69763597 L50.3266132,11.948836 L49.8155655,11.948836 C48.3332697,11.948836 47.5184254,13.0399362 47.5184254,14.3967179 L47.5184254,19.4021074 L44.8782268,19.4021074 L44.8782268,9.9981399 L47.2892907,9.9981399 Z" id="Fill-1"></path>
                <path d="M74.8299346,11.1379913 L74.8299346,9.9972371 L77.2339184,9.9972371 L77.2339184,22.7318974 L74.5950071,22.7318974 L74.5950071,19.4018495 L71.8659866,19.4018495 C69.0912679,19.4018495 66.9363716,17.2312567 66.9363716,14.555095 C66.9363716,11.780915 69.2000426,9.69802288 71.7185938,9.69802288 C73.7666464,9.69802288 74.8299346,11.1379913 74.8299346,11.1379913 Z M74.5950071,14.5757305 C74.5950071,13.1460798 73.4165079,11.9975873 71.9766922,11.9975873 C70.553611,11.9975873 69.4015009,13.0880426 69.3615954,14.4951232 C69.3210463,15.9318674 70.4589963,17.1500046 71.9766922,17.1500046 L74.5950071,17.143556 L74.5950071,14.5757305 Z" id="Fill-3"></path>
                <path d="M39.6222879,8.7987036 L42.2637737,8.7987036 L42.2637737,6.54234466 L39.6222879,6.54234466 L39.6222879,8.7987036 Z M39.6222879,19.4021074 L42.2637737,19.4021074 L42.2637737,9.9981399 L39.6222879,9.9981399 L39.6222879,19.4021074 Z" id="Fill-5"></path>
                <path d="M34.1016854,19.4021719 L34.1016854,15.1519113 L29.3658051,15.1519113 L29.3658051,19.4021719 L26.699861,19.4021719 L26.699861,11.9256856 C26.699861,8.95740321 29.2448013,6.543054 32.4050585,6.543054 L36.7740658,6.543054 L36.7740658,19.4021719 L34.1016854,19.4021719 Z M32.4050585,8.79941294 C30.7258098,8.79941294 29.3658051,10.0852602 29.3658051,11.6767704 L29.3658051,13.0219446 L34.1016854,13.0219446 L34.1016854,8.79941294 L32.4050585,8.79941294 Z" id="Fill-7"></path>
                <path d="M62.4244125,19.4021074 L65.0581747,19.4021074 L65.0581747,9.9981399 L62.4244125,9.9981399 L62.4244125,19.4021074 Z M62.4244125,8.7987036 L65.0581747,8.7987036 L65.0581747,6.54234466 L62.4244125,6.54234466 L62.4244125,8.7987036 Z" id="Fill-8"></path>
                <path d="M91.5882443,19.4021074 L94.2220065,19.4021074 L94.2220065,9.9981399 L91.5882443,9.9981399 L91.5882443,19.4021074 Z M91.5882443,8.7987036 L94.2220065,8.7987036 L94.2220065,6.54234466 L91.5882443,6.54234466 L91.5882443,8.7987036 Z" id="Fill-9"></path>
                <path d="M79.566716,9.9981399 L82.1998346,9.9981399 L82.1998346,15.2569587 C82.1998346,16.68403 83.2489627,17.4546356 84.2729891,17.4546356 C85.2641899,17.4546356 86.4092199,16.7878522 86.4092199,15.2569587 L86.4092199,9.9981399 L89.0481313,9.9981399 L89.0481313,19.4059766 L86.6383547,19.4059766 L86.6383547,18.2652224 L86.6048856,18.3116522 C85.8370267,19.1809211 84.7589349,19.7026114 83.5141411,19.7026114 C81.4924776,19.7026114 79.566716,18.0414566 79.566716,15.6432288 L79.566716,9.9981399 Z" id="Fill-10"></path>
                <polygon id="Fill-11" points="57.2455812 6.54273157 57.2455812 17.1429111 60.6806714 17.1429111 60.6806714 19.3941112 54.5770626 19.4012046 54.5770626 6.54273157"></polygon>
                <path d="M103.994088,18.2598056 L103.994088,19.4018495 L106.398072,19.4018495 L106.398072,6.54273157 L103.759161,6.54273157 L103.759161,9.9972371 L101.030784,9.9972371 C98.2567088,9.9972371 96.0998816,12.1704093 96.0998816,14.8485055 C96.0998816,17.6162371 98.3641962,19.7023534 100.882747,19.7023534 C102.925007,19.7023534 103.994088,18.2598056 103.994088,18.2598056 Z M103.759161,14.8233561 C103.759161,16.2530068 102.580018,17.3989198 101.139559,17.3989198 C99.717121,17.3989198 98.5662982,16.3207169 98.5263927,14.9033185 C98.4794072,13.4646398 99.62315,12.2523063 101.139559,12.2523063 L103.759161,12.2523063 L103.759161,14.8233561 Z" id="Fill-12"></path>
                <path d="M113.587046,19.7025469 C110.657211,19.7025469 108.278329,17.4674683 108.278329,14.7003816 C108.278329,11.9416781 110.650131,9.69757148 113.587046,9.69757148 C116.517525,9.69757148 118.712326,11.9416781 118.712326,14.7003816 C118.712326,14.9750912 118.70589,15.2369037 118.664697,15.5515945 L110.803316,15.5515945 C111.195935,16.7174981 112.232834,17.5493653 113.587046,17.5493653 C114.833127,17.5493653 115.591975,17.16374 116.226601,16.4286017 L118.118893,17.6635052 C117.087787,18.9209787 115.512807,19.7025469 113.587046,19.7025469 M110.81104,13.8330473 L116.184764,13.8330473 C115.803088,12.6671436 114.926454,11.851398 113.587046,11.851398 C112.232834,11.851398 111.187567,12.6793959 110.81104,13.8330473" id="Fill-13"></path>
                <path d="M11.3355401,19.4021719 L19.3655541,19.4021719 L19.3655541,11.3498272 C19.3655541,6.90352975 15.7740602,3.2981274 11.3355401,3.2981274 C6.89895089,3.2981274 3.29973332,6.90352975 3.29973332,11.3498272 C3.29973332,15.7961247 6.89895089,19.4021719 11.3355401,19.4021719 Z M11.3355401,6.543054 C13.9815314,6.543054 16.1299914,8.69494591 16.1299914,11.3498272 L16.1299914,16.1546659 L11.3355401,16.1546659 C8.68246876,16.1546659 6.53272149,14.0053534 6.53272149,11.3498272 C6.53272149,8.69494591 8.68246876,6.543054 11.3355401,6.543054 Z M11.3497001,-0.000322429114 C17.6122872,-0.000322429114 22.6931569,5.08825384 22.6931569,11.3633693 C22.6931569,17.6436435 17.6122872,22.7309301 11.3497001,22.7309301 C5.08453846,22.7309301 0.000450545833,17.6436435 0.000450545833,11.3633693 L0.000450545833,-0.000322429114 L11.3497001,-0.000322429114 Z" id="Fill-14"></path>
                <path d="M28.2957587,26.12469 C28.0466712,26.12469 27.8233292,26.0795499 27.6283072,25.9944286 C27.4332853,25.8957653 27.265296,25.7700179 27.121765,25.6165417 C26.9885322,25.4566168 26.8810448,25.2754117 26.8063829,25.0626085 C26.7342956,24.8543193 26.7001828,24.6228152 26.7001828,24.3874419 C26.7001828,24.1456201 26.7342956,23.9237888 26.8063829,23.7122753 C26.8810448,23.5052758 26.9885322,23.3156875 27.121765,23.1557627 C27.265296,22.9984173 27.4332853,22.8726699 27.6283072,22.7875486 C27.8233292,22.6908199 28.0466712,22.6431004 28.2957587,22.6431004 C28.6864463,22.6431004 29.0037593,22.7527263 29.2457668,22.9610155 C29.4884179,23.1622113 29.6435344,23.4472386 29.7033926,23.7967518 L29.1775413,23.7967518 C29.1427849,23.5710514 29.0423775,23.3930705 28.8962719,23.267968 C28.7463045,23.1351272 28.5454898,23.0777348 28.2957587,23.0777348 C28.1155404,23.0777348 27.9642857,23.1093329 27.8297656,23.1763981 C27.6958891,23.2479774 27.582609,23.3395473 27.4937871,23.4556218 C27.3991725,23.5762102 27.3393143,23.7200136 27.2916851,23.8792936 C27.2434124,24.0334147 27.2234596,24.204947 27.2234596,24.3874419 C27.2234596,24.5744508 27.2434124,24.7421139 27.2916851,24.9013939 C27.3393143,25.060029 27.3991725,25.1948044 27.4937871,25.3121686 C27.582609,25.4314674 27.6958891,25.5211027 27.8297656,25.5907474 C27.9642857,25.6591023 28.1155404,25.6932798 28.2957587,25.6932798 C28.5570753,25.6932798 28.7733373,25.619766 28.9226611,25.4772523 C29.0848576,25.3328041 29.1717485,25.1290289 29.1917013,24.8730201 L29.7033926,24.8730201 C29.6686362,25.2754117 29.5276797,25.5817193 29.2792359,25.7990366 C29.0365848,26.0202229 28.7057554,26.12469 28.2957587,26.12469" id="Fill-15"></path>
                <path d="M30.9834577,23.2820259 L30.9950432,23.2820259 C31.0915887,23.1143628 31.2261088,22.9808771 31.3863744,22.8654475 C31.5550073,22.7525973 31.7551783,22.6906909 31.9810949,22.6906909 C32.0210004,22.6906909 32.0602622,22.6971395 32.0950186,22.7048778 C32.1220514,22.7113264 32.1548769,22.717775 32.1896333,22.731317 L32.1896333,23.227213 L32.1690369,23.227213 C32.1265568,23.2162504 32.0950186,23.2110915 32.0602622,23.2039981 C32.0274368,23.2039981 31.9868876,23.1956149 31.9392585,23.1956149 C31.8105311,23.1956149 31.6895274,23.2194747 31.5768909,23.2684839 C31.4610363,23.3155586 31.3606289,23.3800444 31.2737379,23.4632311 C31.179767,23.5509318 31.1038178,23.654754 31.0568323,23.7837256 C31.0027668,23.9101178 30.9834577,24.0474726 30.9834577,24.1977246 L30.9834577,26.0394397 L30.4640427,26.0394397 L30.4640427,22.731317 L30.9834577,22.731317 L30.9834577,23.2820259 Z" id="Fill-16"></path>
                <path d="M34.2971579,23.0584536 C34.1478342,23.0584536 34.0133141,23.0842479 33.8916667,23.1358366 C33.7719502,23.1893598 33.6702556,23.2680325 33.5872264,23.3647612 C33.5041973,23.4563311 33.4333972,23.5678916 33.3819063,23.6987978 C33.3342771,23.8303489 33.2924407,23.9689934 33.2808553,24.1211799 L35.2677624,24.1211799 C35.2478096,23.7839191 35.1596314,23.5246861 34.9909985,23.3389669 C34.828802,23.1487337 34.6003109,23.0584536 34.2971579,23.0584536 M34.3306271,26.1247545 C34.0815396,26.1247545 33.8530485,26.0796144 33.6554519,25.9938482 C33.4623609,25.8951849 33.2924407,25.7707273 33.1585643,25.6159613 C33.0234005,25.4560365 32.9152695,25.2754762 32.8418949,25.0613832 C32.774313,24.8543837 32.7324766,24.6228796 32.7324766,24.3868615 C32.7324766,24.1456846 32.774313,23.9232085 32.8418949,23.711695 C32.9152695,23.5040506 33.0234005,23.3151072 33.1656443,23.1551823 C33.3059571,22.9978369 33.4694409,22.8727344 33.6644629,22.788258 C33.8530485,22.6908844 34.0686668,22.64252 34.2971579,22.64252 C34.5468891,22.64252 34.7618638,22.6908844 34.9504494,22.788258 C35.1448277,22.8727344 35.305737,23.0042855 35.4344643,23.1693692 C35.5567554,23.3312286 35.6571627,23.5304898 35.7189519,23.7594145 C35.7858901,23.9896289 35.8187156,24.239189 35.8187156,24.5068052 L33.2666953,24.5068052 C33.2712007,24.6783374 33.3059571,24.8318137 33.3606662,24.9794862 C33.4070081,25.1245793 33.4758772,25.2483921 33.5704919,25.3528592 C33.6554519,25.4560365 33.7655139,25.5411578 33.8916667,25.6017744 C34.0203941,25.6598117 34.1684306,25.6933443 34.3306271,25.6933443 C34.5732782,25.6933443 34.7740929,25.6340173 34.9292094,25.5205223 C35.0778895,25.4096067 35.1866641,25.2419435 35.2478096,25.0117291 L35.7517773,25.0117291 C35.6713227,25.3741395 35.5097699,25.6469145 35.2677624,25.8371477 C35.0180313,26.035764 34.7084419,26.1247545 34.3306271,26.1247545" id="Fill-17"></path>
                <path d="M37.6234735,25.7071443 C37.7985427,25.7071443 37.9485101,25.6794154 38.0759502,25.6187987 C38.202103,25.5614063 38.3025104,25.4911168 38.3855396,25.4047058 C38.4679251,25.3202293 38.526496,25.2280146 38.5676888,25.1254821 C38.6056634,25.0197254 38.6339834,24.9139686 38.6339834,24.8153053 L38.6339834,24.2491198 C38.5464488,24.3090916 38.4325251,24.3581009 38.2902813,24.4013064 C38.1551175,24.4412876 38.0154483,24.4690165 37.8738482,24.4928762 C37.7457645,24.5199603 37.6234735,24.5451097 37.5101934,24.5734835 C37.3943387,24.5999227 37.2932877,24.6366796 37.2128331,24.6902028 C37.1317349,24.7340532 37.0654403,24.7953147 37.0178111,24.8726977 C36.9624584,24.9507256 36.9444365,25.0526132 36.9444365,25.1680428 C36.9444365,25.2828275 36.9624584,25.3731077 37.0062257,25.4427524 C37.0454875,25.5117522 37.0989094,25.5614063 37.158124,25.6020324 C37.2269931,25.640079 37.2932877,25.6671631 37.381466,25.6877985 C37.4625642,25.7000508 37.5436625,25.7071443 37.6234735,25.7071443 M39.1875111,26.0689097 C38.8566818,26.0689097 38.6693834,25.9031812 38.6217543,25.576238 L38.613387,25.576238 C38.5593215,25.640079 38.4994633,25.7071443 38.4325251,25.7709852 C38.3655868,25.8316019 38.2832013,25.8825457 38.1969539,25.9360689 C38.1081321,25.9863679 37.9993574,26.0269939 37.8860773,26.0527883 C37.7792336,26.0837415 37.6511498,26.0972835 37.5101934,26.0972835 C37.3557205,26.0972835 37.207684,26.0792275 37.0731639,26.04505 C36.9373565,26.0063585 36.8157091,25.9560595 36.7140145,25.8754523 C36.6123199,25.799359 36.5389453,25.7071443 36.4797307,25.5904249 C36.4256652,25.4775747 36.3915524,25.3415096 36.3915524,25.1815848 C36.3915524,24.9836133 36.4321015,24.8230436 36.5048325,24.7011654 C36.5807817,24.5792872 36.6734654,24.4722408 36.8028364,24.4013064 C36.9302765,24.3245682 37.078313,24.2626618 37.2598186,24.2265498 C37.4348878,24.1852788 37.6234735,24.1452976 37.8326555,24.1130547 C37.9485101,24.0943538 38.0547102,24.080167 38.1499684,24.0588866 C38.2523067,24.0395409 38.3321177,24.0131017 38.3977687,23.9821485 C38.4724305,23.947971 38.526496,23.9092795 38.5676888,23.8583357 C38.6056634,23.7964293 38.6281907,23.7261398 38.6281907,23.6423082 C38.6281907,23.4488507 38.5593215,23.3082717 38.4325251,23.2102532 C38.3025104,23.1096553 38.1229357,23.0587115 37.8802846,23.0587115 C37.6112444,23.0587115 37.4091424,23.1148142 37.2746223,23.2347578 C37.1394585,23.3527669 37.0654403,23.5378412 37.057073,23.784177 L36.5601853,23.784177 C36.5672653,23.6294111 36.5930108,23.4765797 36.6477199,23.3463183 C36.7004981,23.2038046 36.7880328,23.0845059 36.8890838,22.9871323 C37.0062257,22.8865344 37.1394585,22.8085065 37.3010114,22.7569179 C37.4696442,22.6969461 37.6588735,22.6627686 37.8738482,22.6627686 C38.0482738,22.6627686 38.211114,22.6846938 38.3655868,22.7240301 C38.5129797,22.7569179 38.6397761,22.8143103 38.7408271,22.8923381 C38.8566818,22.9806837 38.9371364,23.0845059 38.9976383,23.2199261 C39.0639329,23.3527669 39.0986892,23.5172057 39.0986892,23.711308 L39.0986892,25.2892761 C39.0986892,25.4227618 39.1122056,25.5291634 39.1604784,25.5949389 C39.2068202,25.6594248 39.3001476,25.6742565 39.4488277,25.640079 L39.4636314,25.640079 L39.4636314,26.0199005 C39.4353113,26.0353771 39.3954059,26.040536 39.3477767,26.0527883 C39.3085149,26.0605266 39.2538057,26.0689097 39.1875111,26.0689097" id="Fill-18"></path>
                <path d="M39.9082557,22.7315749 L40.3851907,22.7315749 L40.3851907,21.6881943 L40.903962,21.6881943 L40.903962,22.7315749 L41.5366571,22.7315749 L41.5366571,23.1481534 L40.903962,23.1481534 L40.903962,25.2981107 C40.903962,25.4174095 40.9316384,25.4973719 40.983773,25.5405774 C41.0449185,25.5902315 41.1279477,25.6108669 41.2347914,25.6108669 C41.2882133,25.6108669 41.336486,25.6108669 41.3899079,25.5941006 C41.4356061,25.5818483 41.4767989,25.5766894 41.510268,25.5618577 L41.5308644,25.5618577 L41.5308644,26.0139033 C41.4697189,26.0274453 41.402137,26.0351836 41.329406,26.0455014 C41.2618242,26.0525948 41.1884496,26.0525948 41.1137877,26.0525948 C40.903962,26.0525948 40.7224564,26.0068099 40.5872927,25.9158849 C40.4547035,25.8178664 40.3851907,25.6540724 40.3851907,25.4174095 L40.3851907,23.1481534 L39.9082557,23.1481534 L39.9082557,22.7315749 Z" id="Fill-19"></path>
                <path d="M42.344872,22.1001943 L42.8649306,22.1001943 L42.8649306,21.4637192 L42.344872,21.4637192 L42.344872,22.1001943 Z M42.344872,26.040278 L42.8649306,26.040278 L42.8649306,22.7315105 L42.344872,22.7315105 L42.344872,26.040278 Z" id="Fill-20"></path>
                <path d="M43.4903526,22.7315749 L44.0483858,22.7315749 L44.7299973,24.8312333 C44.7576736,24.900878 44.77827,24.978261 44.8040155,25.0620926 C44.8387719,25.1504382 44.8593683,25.2213726 44.8780337,25.2890827 C44.9050665,25.3735591 44.9314556,25.4515869 44.9539829,25.5212316 L44.959132,25.5212316 C44.9861647,25.4432038 45.0048302,25.3658208 45.0337939,25.2826341 C45.0537466,25.2078305 45.0730557,25.1362513 45.1007321,25.0588683 C45.1271212,24.978261 45.1554413,24.900878 45.1818304,24.8312333 L45.8756709,22.7315749 L46.4137514,22.7315749 L45.2210922,26.0403425 L44.6495426,26.0403425 L43.4903526,22.7315749 Z" id="Fill-21"></path>
                <path d="M48.4219629,23.0584536 C48.2719955,23.0584536 48.1316827,23.0842479 48.0171153,23.1358366 C47.8954679,23.1893598 47.7931297,23.2680325 47.7062387,23.3647612 C47.627715,23.4563311 47.5601331,23.5678916 47.5047803,23.6987978 C47.4500712,23.8303489 47.4172457,23.9689934 47.404373,24.1211799 L49.3906364,24.1211799 C49.3700401,23.7839191 49.2754254,23.5246861 49.1138726,23.3389669 C48.9516761,23.1487337 48.7251159,23.0584536 48.4219629,23.0584536 M48.4547884,26.1247545 C48.2050573,26.1247545 47.9778534,26.0796144 47.7821878,25.9938482 C47.5858786,25.8951849 47.4172457,25.7707273 47.2820819,25.6159613 C47.1411255,25.4560365 47.0407181,25.2754762 46.9660562,25.0613832 C46.8984744,24.8543837 46.8579252,24.6228796 46.8579252,24.3868615 C46.8579252,24.1456846 46.8984744,23.9232085 46.9660562,23.711695 C47.0407181,23.5040506 47.1469182,23.3151072 47.289162,23.1551823 C47.4243257,22.9978369 47.5923149,22.8727344 47.7873369,22.788258 C47.9778534,22.6908844 48.1863918,22.64252 48.4219629,22.64252 C48.6697631,22.64252 48.8847378,22.6908844 49.0739671,22.788258 C49.2651273,22.8727344 49.4324728,23.0042855 49.5521893,23.1693692 C49.6802731,23.3312286 49.7736004,23.5304898 49.8405386,23.7594145 C49.9094078,23.9896289 49.9428769,24.239189 49.9428769,24.5068052 L47.3902129,24.5068052 C47.395362,24.6783374 47.4243257,24.8318137 47.4790348,24.9794862 C47.5311694,25.1245793 47.597464,25.2483921 47.6856423,25.3528592 C47.7821878,25.4560365 47.8890315,25.5411578 48.0171153,25.6017744 C48.145199,25.6598117 48.2874428,25.6933443 48.4547884,25.6933443 C48.6980831,25.6933443 48.8995415,25.6340173 49.0469343,25.5205223 C49.2026945,25.4096067 49.3108255,25.2419435 49.3700401,25.0117291 L49.875295,25.0117291 C49.7941968,25.3741395 49.6339312,25.6469145 49.3906364,25.8371477 C49.1421926,26.035764 48.8319596,26.1247545 48.4547884,26.1247545" id="Fill-22"></path>
                <path d="M53.4120155,25.6932798 C53.5793611,25.6932798 53.7344776,25.6591023 53.8696413,25.5907474 C54.0054487,25.5204578 54.1142233,25.4314674 54.199827,25.3115237 C54.286718,25.1941595 54.3555872,25.060029 54.4006418,24.900749 C54.4502018,24.7421139 54.4688673,24.5738059 54.4688673,24.386797 C54.4688673,24.204947 54.4502018,24.0334147 54.4006418,23.8786488 C54.3555872,23.7187239 54.286718,23.5762102 54.199827,23.4549769 C54.1142233,23.3389024 54.0054487,23.2486223 53.8696413,23.1763981 C53.7344776,23.1093329 53.5793611,23.0777348 53.4120155,23.0777348 C53.2375899,23.0777348 53.0805425,23.1093329 52.9402296,23.1763981 C52.8134331,23.2486223 52.6988658,23.3389024 52.6113312,23.4549769 C52.5244402,23.5762102 52.4549274,23.7187239 52.4085855,23.8786488 C52.3673928,24.0334147 52.34036,24.204947 52.34036,24.386797 C52.34036,24.5738059 52.3673928,24.7421139 52.4085855,24.900749 C52.4549274,25.060029 52.5244402,25.1941595 52.6113312,25.3115237 C52.6988658,25.4314674 52.8134331,25.5204578 52.9402296,25.5907474 C53.0805425,25.6591023 53.2375899,25.6932798 53.4120155,25.6932798 M53.4120155,26.12469 C53.1616407,26.12469 52.9402296,26.0795499 52.744564,25.9937837 C52.5501857,25.8951204 52.3809091,25.7706628 52.2399527,25.6158968 C52.1054325,25.455972 51.9973015,25.2754117 51.9232833,25.0619636 C51.8505523,24.8536744 51.8157959,24.6228152 51.8157959,24.386797 C51.8157959,24.1456201 51.8505523,23.9237888 51.9232833,23.7116305 C51.9973015,23.504631 52.1054325,23.3150427 52.2399527,23.1551178 C52.3809091,22.9984173 52.5501857,22.8726699 52.744564,22.7881935 C52.9402296,22.6908199 53.1616407,22.6431004 53.4120155,22.6431004 C53.6546666,22.6431004 53.8773649,22.6908199 54.0730306,22.7881935 C54.2674089,22.8726699 54.4341109,22.9984173 54.5705619,23.1551178 C54.7128057,23.3150427 54.8196494,23.504631 54.8943113,23.7116305 C54.9612495,23.9237888 55.0024423,24.1456201 55.0024423,24.386797 C55.0024423,24.6228152 54.9612495,24.8536744 54.8943113,25.0619636 C54.8196494,25.2754117 54.7128057,25.455972 54.5705619,25.6158968 C54.4341109,25.7706628 54.2674089,25.8951204 54.0730306,25.9937837 C53.8773649,26.0795499 53.6546666,26.12469 53.4120155,26.12469" id="Fill-23"></path>
                <polygon id="Fill-24" points="56.7201161 24.3034169 55.6214279 22.7312525 56.2200102 22.7312525 57.0097527 23.9274645 57.0155454 23.9274645 57.8368261 22.7312525 58.4038702 22.7312525 57.3186984 24.2415105 58.6117649 26.0400201 57.998379 26.0400201 57.023269 24.6181077 57.0097527 24.6181077 56.0526646 26.0400201 55.4733914 26.0400201"></polygon>
                <path d="M59.6887626,27.1284763 C59.5877116,27.1284763 59.5059697,27.1284763 59.4268023,27.1258968 C59.3605077,27.1104203 59.2922822,27.0904296 59.2176203,27.0627007 L59.2176203,26.5990477 L59.2446531,26.5990477 C59.2794095,26.624842 59.3257513,26.6370943 59.3804605,26.6525709 C59.4390314,26.6654681 59.5149806,26.6680475 59.5935043,26.6680475 C59.7087153,26.6680475 59.7962499,26.6448326 59.8786355,26.5848608 C59.9513664,26.5403656 60.0240974,26.4288051 60.0865302,26.2721046 L60.2229812,25.9432269 L58.9286274,22.731188 L59.4873042,22.731188 L60.2680358,24.7895755 C60.2944249,24.8585753 60.3150213,24.937248 60.3439849,25.0120516 C60.3684431,25.082986 60.3974068,25.1571447 60.414785,25.2209856 C60.4450359,25.2932098 60.4649887,25.3660787 60.4907341,25.437658 L60.5048942,25.437658 C60.5248469,25.3660787 60.551236,25.2932098 60.572476,25.2209856 C60.5930724,25.1571447 60.6194615,25.082986 60.6458506,25.0120516 C60.6722398,24.937248 60.6928361,24.8585753 60.7198689,24.7895755 L61.4722804,22.731188 L62.0277391,22.731188 L60.6130252,26.3075718 C60.5447996,26.4784592 60.478505,26.6190383 60.4102795,26.7215707 C60.3439849,26.8273275 60.2770467,26.9124488 60.2017412,26.9711309 C60.125792,27.0369064 60.0453374,27.0768876 59.9584464,27.1033268 C59.8786355,27.1258968 59.7885263,27.1284763 59.6887626,27.1284763" id="Fill-25"></path>
                <path d="M63.9383752,25.4911168 C64.1282481,25.4911168 64.289801,25.4556496 64.4172411,25.3969675 C64.5453248,25.3331265 64.6483067,25.2486501 64.722325,25.1364447 C64.8008487,25.0248843 64.8562015,24.8933332 64.8896706,24.7424364 C64.924427,24.5992778 64.9430924,24.4335493 64.9430924,24.2568581 C64.9430924,23.8989618 64.8619942,23.6087756 64.6997977,23.3979069 C64.5453248,23.1947766 64.2820773,23.0890199 63.9319389,23.0890199 C63.6242804,23.0890199 63.3880657,23.2038046 63.2252255,23.4185424 C63.0771891,23.6423082 62.9960908,23.9279804 62.9960908,24.2916805 C62.9960908,24.6502216 63.0771891,24.9436321 63.2316619,25.1596596 C63.4015821,25.3789114 63.6352222,25.4911168 63.9383752,25.4911168 M63.9737753,27.1335707 C63.5438258,27.1335707 63.2065601,27.0574774 62.9697017,26.8949731 C62.7341306,26.7356931 62.5983232,26.5080582 62.5725777,26.2236757 L63.0501563,26.2236757 C63.0771891,26.4074603 63.1724473,26.5403011 63.3333565,26.6112355 C63.4942658,26.6886185 63.7053787,26.7285997 63.9602589,26.7285997 C64.2634119,26.7285997 64.4983393,26.6576653 64.6598922,26.5203105 C64.8227323,26.3829557 64.9018997,26.1656385 64.9018997,25.8760971 L64.9018997,25.4092198 L64.8896706,25.4092198 C64.7673796,25.5697895 64.6328594,25.6929574 64.4854666,25.7832375 C64.3425792,25.8760971 64.1488445,25.9225269 63.9119861,25.9225269 C63.6963678,25.9225269 63.5013458,25.8825457 63.3262765,25.799359 C63.1512073,25.7213311 62.9960908,25.6110604 62.8680071,25.4633879 C62.7470033,25.3195845 62.6472396,25.1422485 62.5725777,24.9436321 C62.5056395,24.7424364 62.4715267,24.5270537 62.4715267,24.2826524 C62.4715267,24.0259989 62.5056395,23.7957845 62.5803014,23.6010373 C62.6517451,23.3921032 62.7527961,23.2192812 62.8828107,23.0845059 C63.0160435,22.9413473 63.1724473,22.8343009 63.3417238,22.7633665 C63.5090694,22.6904975 63.690575,22.6511611 63.8849534,22.6511611 C64.1224554,22.6511611 64.325201,22.6969461 64.4764557,22.7885159 C64.6386522,22.8723475 64.7821832,22.9890668 64.8896706,23.1483468 L64.9018997,23.1483468 L64.9018997,22.7317684 L65.420671,22.7317684 L65.420671,25.8548168 C65.420671,26.0727789 65.3878455,26.2636569 65.3202637,26.4210023 C65.2533254,26.5847963 65.1516308,26.7150577 65.0241907,26.8266181 C64.8948197,26.9310852 64.7409904,27.0084682 64.5678521,27.0632811 C64.3857029,27.1180941 64.1900373,27.1335707 63.9737753,27.1335707" id="Fill-26"></path>
                <path d="M67.7725846,23.0584536 C67.6168245,23.0584536 67.4823044,23.0842479 67.3619443,23.1358366 C67.2390096,23.1893598 67.1386023,23.2680325 67.0587913,23.3647612 C66.9776931,23.4563311 66.9017439,23.5678916 66.8496093,23.6987978 C66.8013365,23.8303489 66.7614311,23.9689934 66.747271,24.1211799 L68.7354654,24.1211799 C68.7148691,23.7839191 68.6273344,23.5246861 68.4599889,23.3389669 C68.2958614,23.1487337 68.068014,23.0584536 67.7725846,23.0584536 M67.7989737,26.1247545 C67.5498863,26.1247545 67.3284752,26.0796144 67.1276605,25.9938482 C66.9313512,25.8951849 66.7614311,25.7707273 66.6269109,25.6159613 C66.4911036,25.4560365 66.3849035,25.2754762 66.3102416,25.0613832 C66.2420161,24.8543837 66.2033979,24.6228796 66.2033979,24.3868615 C66.2033979,24.1456846 66.2420161,23.9232085 66.3102416,23.711695 C66.3906962,23.5040506 66.4988272,23.3151072 66.6333473,23.1551823 C66.7762347,22.9978369 66.9365003,22.8727344 67.1315223,22.788258 C67.3284752,22.6908844 67.5363699,22.64252 67.7725846,22.64252 C68.0216721,22.64252 68.2372905,22.6908844 68.4181525,22.788258 C68.6138181,22.8727344 68.7682909,23.0042855 68.9021674,23.1693692 C69.0328257,23.3312286 69.1267967,23.5304898 69.184724,23.7594145 C69.2542368,23.9896289 69.2877059,24.239189 69.2877059,24.5068052 L66.7350419,24.5068052 C66.7408347,24.6783374 66.7762347,24.8318137 66.8232202,24.9794862 C66.8759984,25.1245793 66.9429367,25.2483921 67.0381949,25.3528592 C67.1276605,25.4560365 67.2332169,25.5411578 67.3619443,25.6017744 C67.490028,25.6598117 67.6367772,25.6933443 67.7989737,25.6933443 C68.0403376,25.6933443 68.2417959,25.6340173 68.3975561,25.5205223 C68.5455926,25.4096067 68.6543672,25.2419435 68.7148691,25.0117291 L69.2194804,25.0117291 C69.1461058,25.3741395 68.9781166,25.6469145 68.7354654,25.8371477 C68.4838034,26.035764 68.1755013,26.1247545 67.7989737,26.1247545" id="Fill-27"></path>
                <path d="M70.5815448,23.1623402 L70.5944176,23.1623402 C70.7102722,23.00435 70.8563778,22.8792475 71.0192179,22.7960608 C71.1929999,22.6973975 71.3951019,22.6509677 71.637753,22.6509677 C71.9814551,22.6509677 72.258219,22.7444721 72.4532409,22.9256773 C72.6482629,23.1094619 72.7486703,23.3719192 72.7486703,23.7124043 L72.7486703,26.0396976 L72.2324735,26.0396976 L72.2324735,23.759479 C72.2324735,23.5447412 72.1636043,23.3803023 72.0348769,23.2616484 C71.9067932,23.1436394 71.7188512,23.0888264 71.4819928,23.0888264 C71.35584,23.0888264 71.233549,23.1094619 71.1189816,23.1558917 C71.0121379,23.204256 70.9168796,23.2616484 70.8357814,23.3461248 C70.7559704,23.418349 70.6864576,23.5170123 70.6407594,23.6350213 C70.5982794,23.7433575 70.5815448,23.8652357 70.5815448,24.0019457 L70.5815448,26.0396976 L70.0601989,26.0396976 L70.0601989,22.7315749 L70.5815448,22.7315749 L70.5815448,23.1623402 Z" id="Fill-28"></path>
            </g>
        </g>
    </g>
</svg>